<svg id="Capa_1" enable-background="new 0 0 512 512" height="512" viewBox="0 0 512 512" width="512" xmlns="http://www.w3.org/2000/svg"><g id="XMLID_846_"><g id="XMLID_341_"><path id="XMLID_342_" d="m298.25 209.364c-4.406 4.407-11.58 4.407-15.986 0-3.906-3.905-10.238-3.905-14.143 0s-3.905 10.237 0 14.142c6.104 6.103 14.119 9.153 22.136 9.153s16.032-3.051 22.136-9.153c3.905-3.905 3.905-10.237 0-14.142-3.906-3.904-10.236-3.905-14.143 0z"/><path id="XMLID_346_" d="m505.614 426.113c-1.452-5.328-6.948-8.47-12.277-7.018-5.329 1.453-8.471 6.95-7.018 12.278 3.77 13.828 5.681 28.181 5.681 42.66v17.967h-134.699l49.295-96.97c1.576-3.1 1.429-6.796-.39-9.761-1.819-2.964-5.047-4.771-8.524-4.771h-17.922l23.418-50.936c14.811 7.498 28.525 17.324 40.666 29.305 1.949 1.923 4.487 2.882 7.024 2.882 2.581 0 5.161-.994 7.118-2.976 3.879-3.931 3.837-10.263-.094-14.142-4.567-4.507-9.339-8.734-14.282-12.693 18.469-29.639 22.521-66.45 10.713-99.482l-14.589-40.813c-3.676-10.283-5.539-21.032-5.539-31.949v-48.261c0-26.395-10.852-52.088-29.772-70.493-26.289-25.569-63.972-34.319-98.755-23.081-15.146-11.416-33.813-17.859-53.116-17.859-30.677 0-60.193 14.491-78.956 38.763-22.83 29.536-30.982 67.308-22.364 103.63 7.777 32.784 2.763 66.898-14.12 96.059-8.756 15.125-11.564 32.762-8.277 49.548h-26.835c-16.542 0-30 13.458-30 30v10h-42c-16.542 0-30 13.458-30 30v124c0 16.542 13.458 30 30 30h472c5.522 0 10-4.477 10-10v-27.966c0-16.256-2.148-32.379-6.386-47.921zm-351.194-177.64c19.455-33.604 25.233-72.916 16.271-110.697-7.216-30.417-.39-62.048 18.729-86.782 15.002-19.408 38.602-30.994 63.132-30.994 21.449 0 41.889 10.281 54.677 27.501 3.292 4.435 9.559 5.36 13.99 2.066 4.434-3.292 5.359-9.556 2.066-13.99-.327-.44-.664-.87-.998-1.302 24.595-4.382 49.868 3.181 68.191 21.003 15.073 14.661 23.718 35.128 23.718 56.155v48.261c0 13.218 2.256 26.232 6.706 38.681l14.59 40.814c9.611 26.887 6.505 56.809-8.188 81.103-26.032-16.501-55.844-26.085-87.096-27.772v-28.089c24.074-16.148 39.952-43.609 39.952-74.712v-44.819c0-5.523-4.478-10-10-10h-25.146c-11.181 0-21.556-5.51-27.864-14.566 2.623-6.437 4.081-13.467 4.081-20.835 0-5.523-4.478-10-10-10s-10 4.477-10 10c0 19.52-15.881 35.401-35.401 35.401h-55.477c-5.522 0-10 4.477-10 10v44.819c0 31.103 15.878 58.564 39.952 74.712v28.083c-26.955 1.462-52.994 8.834-76.563 21.626-1.101-8.531-5.8-15.945-12.518-20.678-5.889-14.634-4.759-31.25 3.196-44.989zm135.837 11.15c-38.545 0-69.903-31.358-69.903-69.903v-34.819h45.477c15.647 0 29.79-6.531 39.874-16.997 10.069 10.7 24.234 16.997 39.311 16.997h15.146v34.819c-.002 38.544-31.36 69.903-69.905 69.903zm29.951 14.863v23.614l-29.951 29.952-29.951-29.952v-23.614c9.374 3.322 19.454 5.136 29.951 5.136s20.577-1.814 29.951-5.136zm-228.208 43.514c0-5.514 4.486-10 10-10h32c5.514 0 10 4.486 10 10v10h-52zm124 164c0 5.514-4.486 10-10 10h-176c-5.514 0-10-4.486-10-10v-58h69.092c3.511 12.669 15.137 22 28.908 22s25.397-9.331 28.908-22h69.092zm-108-66v-14h20v14c0 5.514-4.486 10-10 10s-10-4.486-10-10zm108-12h-68v-12c0-5.523-4.478-10-10-10h-40c-5.522 0-10 4.477-10 10v12h-68v-46c0-5.514 4.486-10 10-10h176c5.514 0 10 4.486 10 10zm18.28 88c1.11-3.13 1.72-6.494 1.72-10v-124c0-16.542-13.458-30-30-30h-25.38c19.207-9.179 40.045-14.464 61.533-15.531l35.906 179.531zm32.308-159.333 16.598 16.598c1.876 1.875 4.419 2.929 7.071 2.929s5.196-1.054 7.071-2.929l16.597-16.597-23.668 118.343zm35.867 159.333 35.911-179.555c16.03.792 31.641 3.919 46.437 9.21l-29.73 64.666c-1.423 3.096-1.172 6.704.667 9.573 1.838 2.869 5.012 4.604 8.419 4.604h17.224l-46.517 91.502z"/><path id="XMLID_1260_" d="m64 206.715c-9.354 0-16.965-6.492-16.965-14.473 0-5.523-4.478-10-10-10s-10 4.477-10 10c0 15.776 11.427 29.102 26.965 33.18v1.472c0 5.523 4.478 10 10 10s10-4.477 10-10v-1.472c15.538-4.078 26.965-17.404 26.965-33.18 0-19.008-16.582-34.472-36.965-34.472-9.354 0-16.965-6.492-16.965-14.473 0-7.98 7.61-14.472 16.965-14.472s16.965 6.492 16.965 14.472c0 5.523 4.478 10 10 10s10-4.477 10-10c0-15.776-11.427-29.101-26.965-33.18v-2.409c0-5.523-4.478-10-10-10s-10 4.477-10 10v2.409c-15.538 4.078-26.965 17.404-26.965 33.18 0 19.008 16.582 34.473 36.965 34.473 9.354 0 16.965 6.492 16.965 14.472 0 7.981-7.611 14.473-16.965 14.473z"/><path id="XMLID_1269_" d="m478.5 397.25c2.63 0 5.21-1.07 7.069-2.93 1.86-1.86 2.931-4.44 2.931-7.07s-1.07-5.21-2.931-7.07c-1.859-1.86-4.439-2.93-7.069-2.93-2.641 0-5.21 1.07-7.08 2.93-1.851 1.86-2.92 4.44-2.92 7.07s1.069 5.21 2.92 7.07c1.87 1.86 4.439 2.93 7.08 2.93z"/></g></g></svg>